<svg xmlns="http://www.w3.org/2000/svg" viewBox="0 0 386.61 305.24"><defs><style>.cls-1{fill:#b7a9ad;}.cls-2{fill:#4f4246;}.cls-3{fill:none;stroke:#4f4246;stroke-linecap:round;stroke-width:3.49px;}.cls-3,.cls-7{stroke-linejoin:round;}.cls-4{fill:#828093;}.cls-5{fill:#797789;}.cls-6{fill:#aa81a1;}.cls-7{fill:#90c3d1;stroke:#647ebe;stroke-width:1.74px;}.cls-8{fill:#7c636c;}.cls-9{fill:#9f909d;}.cls-10{fill:#a08a8a;}.cls-11{fill:#9e8aa0;}.cls-12{fill:#9e8a92;}.cls-13{fill:#8c899b;}.cls-14{fill:#998897;}.cls-15{fill:#d7c7d7;}.cls-16{fill:#c8ccd5;}.cls-17{fill:#d1d3c7;}.cls-18{fill:#d1c7cd;}</style></defs><title>Asset 9</title><g id="Layer_2" data-name="Layer 2"><g id="rock"><path class="cls-1" d="M193.31,3.31c93.06-18.42,177.55,43.27,177.55,105.24s59.45,190.43-52.64,195S0,308.58,0,231.69s79.88-96.4,104.36-128.54S112.14,19.38,193.31,3.31Z"/><ellipse class="cls-2" cx="166.46" cy="101.37" rx="9.88" ry="4.15" transform="translate(-20.77 47.26) rotate(-15.22)"/><ellipse class="cls-2" cx="279.82" cy="105.52" rx="4.15" ry="9.04" transform="translate(64.21 312.75) rotate(-64.53)"/><path class="cls-3" d="M199.67,108.1s-9.22,5.73-6,14.24,24.42,6.81,26.05-4.68c0,0,4.07,10.27,15.47,10s16.28-5.78,10.58-18.33"/><path class="cls-4" d="M56,167.08l-7.65,6.2a4,4,0,0,0,1.8,7l10.34,1.86A4,4,0,0,0,65,177l-2.69-8.06A4,4,0,0,0,56,167.08Z"/><path class="cls-5" d="M362.87,153.08a4.19,4.19,0,0,0-7.2-3.14l-16.73,17.4a4.39,4.39,0,0,0,2.54,7.94l14.7,1.33a8,8,0,0,0,8.65-9Z"/><path class="cls-6" d="M102.25,145.62l-21.32,3.94c-5.36,1-8.22,4.89-6.1,8.33l1.94,3.16c2,3.32,7.89,4.79,12.71,3.18l19.57-6.52c3.81-1.27,5.84-4.11,4.91-6.89l-.19-.57C112.62,146.79,107.37,144.68,102.25,145.62Z"/><path class="cls-7" d="M277.48,116.61l-7.06,12.8a9.4,9.4,0,0,0-1,7c.65,2.42,2.39,4.9,6.73,5.15a7.46,7.46,0,0,0,7-3.29,9.74,9.74,0,0,0,.4-10Z"/><path class="cls-8" d="M158.38,84.38c-3.34.59-2.83,3.71.63,3.88,6.43.31,13.41,0,18.11-1.83a46.6,46.6,0,0,0,7.53-3.74c2.41-1.49-.13-4-3.26-3.24C175.1,81,166.65,82.91,158.38,84.38Z"/><path class="cls-8" d="M289.43,88.91c3.34.59,2.82,3.71-.63,3.87-6.43.31-13.41,0-18.11-1.82a47.17,47.17,0,0,1-7.54-3.74c-2.4-1.49.14-4,3.27-3.24C272.71,85.51,281.15,87.44,289.43,88.91Z"/><path class="cls-9" d="M184.77,158.07c-.3-5.4,5.68-9,11.55-6.89,7.49,2.67,16.74,5.2,22.59,4a52.79,52.79,0,0,1,14.57-.89,3.59,3.59,0,0,1,3.47,3.81c-.69,4.53-2.81,12.3-9.38,13.15-7.83,1-32.59-7.48-40.34-10.24a3.54,3.54,0,0,1-2.46-3Z"/><path class="cls-10" d="M50.5,194.22S19,180.11,18.56,202s9.7,40.5,16,35,.2-16.45,7.48-20.29,10.09,6,17,3.84S58.82,197.1,50.5,194.22Z"/><path class="cls-11" d="M320.55,176.62s-26.21,13.19-22.24,25.88,10.06.51,20.21,0,19.28,14.21,29.94,13.19,15.22-15.68,5.07-21.29-15.73,5.1-19.79,0S332.72,180.69,320.55,176.62Z"/><path class="cls-12" d="M91.06,225.19c-15.79.58-19.75,24.09-5.16,30.68,31.71,14.32,82.93,33,125,27.61C277,275,334.58,287.26,351,269.29s-4.18-38.56-13.89-35.35-25.92,24.67-132.32,20.83C189.84,254.23,131.32,223.71,91.06,225.19Z"/><path class="cls-13" d="M76.84,196.18s-7.24,13.17,11.54,19.56,57.74,14.11,61.91,5.7S138.47,196,120.38,196.18s-21.15-.58-26.22-6.44S76.84,196.18,76.84,196.18Z"/><path class="cls-14" d="M237,229.85s15.45,20.69,41.84,17.86,46.65-9.53,46.65-17.86-32.82-12.57-38.69-7.61S244.08,219.08,237,229.85Z"/><path class="cls-15" d="M177.25,28.34l-9.62,3.85a4.76,4.76,0,0,0-1.33,8L177,49.39a4.87,4.87,0,0,0,8-3.56L185.36,34A5.9,5.9,0,0,0,177.25,28.34Z"/><path class="cls-16" d="M234.58,19.54s-32.13-1.32-36.53,4-4.41,17.61,0,17.17S228.36,28.21,237,30,244.27,23.06,234.58,19.54Z"/><path class="cls-17" d="M267.05,21.49l12,5.17a2.3,2.3,0,0,1-.64,4.39l-20.26,2.42a2.73,2.73,0,0,1-2.58-4.23l3.71-5.47A6.38,6.38,0,0,1,267.05,21.49Z"/><ellipse class="cls-18" cx="222.11" cy="101.54" rx="11.24" ry="3.98"/></g></g></svg>